<mxfile host="app.diagrams.net" agent="Mozilla/5.0 (Windows NT 10.0; Win64; x64) AppleWebKit/537.36 (KHTML, like Gecko) Chrome/120.0.0.0 Safari/537.36" version="26.2.13" pages="4">
  <diagram name="标签互斥" id="sRZyp8Yas-7lkeCJVd-7">
    <mxGraphModel dx="1124" dy="819" grid="0" gridSize="10" guides="1" tooltips="1" connect="1" arrows="1" fold="1" page="0" pageScale="1" pageWidth="827" pageHeight="1169" math="0" shadow="0">
      <root>
        <mxCell id="0" />
        <mxCell id="1" parent="0" />
        <mxCell id="G1KZ766goiGEvs0yxv07-32" value="" style="rounded=0;whiteSpace=wrap;html=1;strokeColor=none;" vertex="1" parent="1">
          <mxGeometry x="-301" y="-58" width="629" height="377" as="geometry" />
        </mxCell>
        <mxCell id="G1KZ766goiGEvs0yxv07-8" style="edgeStyle=none;curved=1;rounded=0;orthogonalLoop=1;jettySize=auto;html=1;entryX=0.5;entryY=0;entryDx=0;entryDy=0;fontSize=12;startSize=8;endSize=8;endArrow=none;startFill=0;" edge="1" parent="1" source="G1KZ766goiGEvs0yxv07-2" target="G1KZ766goiGEvs0yxv07-4">
          <mxGeometry relative="1" as="geometry" />
        </mxCell>
        <mxCell id="G1KZ766goiGEvs0yxv07-9" style="edgeStyle=none;curved=1;rounded=0;orthogonalLoop=1;jettySize=auto;html=1;fontSize=12;startSize=8;endSize=8;endArrow=none;startFill=0;" edge="1" parent="1" source="G1KZ766goiGEvs0yxv07-2" target="G1KZ766goiGEvs0yxv07-5">
          <mxGeometry relative="1" as="geometry" />
        </mxCell>
        <mxCell id="G1KZ766goiGEvs0yxv07-2" value="标签L1" style="whiteSpace=wrap;html=1;align=center;" vertex="1" parent="1">
          <mxGeometry x="-180" y="15" width="100" height="40" as="geometry" />
        </mxCell>
        <mxCell id="G1KZ766goiGEvs0yxv07-10" style="edgeStyle=none;curved=1;rounded=0;orthogonalLoop=1;jettySize=auto;html=1;entryX=0.5;entryY=0;entryDx=0;entryDy=0;fontSize=12;startSize=8;endSize=8;endArrow=none;startFill=0;" edge="1" parent="1" source="G1KZ766goiGEvs0yxv07-3" target="G1KZ766goiGEvs0yxv07-6">
          <mxGeometry relative="1" as="geometry" />
        </mxCell>
        <mxCell id="G1KZ766goiGEvs0yxv07-27" style="edgeStyle=none;curved=1;rounded=0;orthogonalLoop=1;jettySize=auto;html=1;entryX=0.75;entryY=0;entryDx=0;entryDy=0;fontSize=12;startSize=8;endSize=8;endArrow=none;startFill=0;" edge="1" parent="1" source="G1KZ766goiGEvs0yxv07-3" target="G1KZ766goiGEvs0yxv07-5">
          <mxGeometry relative="1" as="geometry" />
        </mxCell>
        <mxCell id="G1KZ766goiGEvs0yxv07-3" value="标签L2" style="whiteSpace=wrap;html=1;align=center;" vertex="1" parent="1">
          <mxGeometry x="120" y="15" width="100" height="40" as="geometry" />
        </mxCell>
        <mxCell id="G1KZ766goiGEvs0yxv07-17" style="edgeStyle=none;curved=1;rounded=0;orthogonalLoop=1;jettySize=auto;html=1;fontSize=12;startSize=8;endSize=8;endArrow=none;startFill=0;" edge="1" parent="1" source="G1KZ766goiGEvs0yxv07-4" target="G1KZ766goiGEvs0yxv07-12">
          <mxGeometry relative="1" as="geometry" />
        </mxCell>
        <mxCell id="G1KZ766goiGEvs0yxv07-4" value="角色R11" style="whiteSpace=wrap;html=1;align=center;" vertex="1" parent="1">
          <mxGeometry x="-247" y="125" width="100" height="40" as="geometry" />
        </mxCell>
        <mxCell id="G1KZ766goiGEvs0yxv07-20" style="edgeStyle=none;curved=1;rounded=0;orthogonalLoop=1;jettySize=auto;html=1;fontSize=12;startSize=8;endSize=8;endArrow=none;startFill=0;" edge="1" parent="1" source="G1KZ766goiGEvs0yxv07-5" target="G1KZ766goiGEvs0yxv07-13">
          <mxGeometry relative="1" as="geometry" />
        </mxCell>
        <mxCell id="G1KZ766goiGEvs0yxv07-21" style="edgeStyle=none;curved=1;rounded=0;orthogonalLoop=1;jettySize=auto;html=1;fontSize=12;startSize=8;endSize=8;exitX=0.75;exitY=1;exitDx=0;exitDy=0;endArrow=none;startFill=0;" edge="1" parent="1" source="G1KZ766goiGEvs0yxv07-4" target="G1KZ766goiGEvs0yxv07-14">
          <mxGeometry relative="1" as="geometry" />
        </mxCell>
        <mxCell id="G1KZ766goiGEvs0yxv07-5" value="角色R12" style="whiteSpace=wrap;html=1;align=center;fillColor=#f8cecc;strokeColor=#b85450;" vertex="1" parent="1">
          <mxGeometry x="-106" y="129" width="100" height="40" as="geometry" />
        </mxCell>
        <mxCell id="G1KZ766goiGEvs0yxv07-24" style="edgeStyle=none;curved=1;rounded=0;orthogonalLoop=1;jettySize=auto;html=1;entryX=0.25;entryY=0;entryDx=0;entryDy=0;fontSize=12;startSize=8;endSize=8;endArrow=none;startFill=0;" edge="1" parent="1" source="G1KZ766goiGEvs0yxv07-6" target="G1KZ766goiGEvs0yxv07-15">
          <mxGeometry relative="1" as="geometry" />
        </mxCell>
        <mxCell id="G1KZ766goiGEvs0yxv07-6" value="角色R21" style="whiteSpace=wrap;html=1;align=center;" vertex="1" parent="1">
          <mxGeometry x="50" y="129" width="100" height="40" as="geometry" />
        </mxCell>
        <mxCell id="G1KZ766goiGEvs0yxv07-22" style="edgeStyle=none;curved=1;rounded=0;orthogonalLoop=1;jettySize=auto;html=1;fontSize=12;startSize=8;endSize=8;endArrow=none;startFill=0;" edge="1" parent="1" source="G1KZ766goiGEvs0yxv07-7" target="G1KZ766goiGEvs0yxv07-15">
          <mxGeometry relative="1" as="geometry" />
        </mxCell>
        <mxCell id="G1KZ766goiGEvs0yxv07-7" value="角色R22" style="whiteSpace=wrap;html=1;align=center;" vertex="1" parent="1">
          <mxGeometry x="210" y="133" width="100" height="40" as="geometry" />
        </mxCell>
        <mxCell id="G1KZ766goiGEvs0yxv07-11" style="edgeStyle=none;curved=1;rounded=0;orthogonalLoop=1;jettySize=auto;html=1;entryX=0.414;entryY=0.083;entryDx=0;entryDy=0;entryPerimeter=0;fontSize=12;startSize=8;endSize=8;endArrow=none;startFill=0;" edge="1" parent="1" source="G1KZ766goiGEvs0yxv07-3" target="G1KZ766goiGEvs0yxv07-7">
          <mxGeometry relative="1" as="geometry" />
        </mxCell>
        <mxCell id="G1KZ766goiGEvs0yxv07-12" value="用户U01" style="whiteSpace=wrap;html=1;align=center;fillColor=#ffe6cc;strokeColor=#d79b00;" vertex="1" parent="1">
          <mxGeometry x="-250.5" y="264" width="100" height="40" as="geometry" />
        </mxCell>
        <mxCell id="G1KZ766goiGEvs0yxv07-13" value="用户U02" style="whiteSpace=wrap;html=1;align=center;" vertex="1" parent="1">
          <mxGeometry x="-95" y="264" width="100" height="40" as="geometry" />
        </mxCell>
        <mxCell id="G1KZ766goiGEvs0yxv07-14" value="用户U03" style="whiteSpace=wrap;html=1;align=center;fillColor=#ffe6cc;strokeColor=#d79b00;" vertex="1" parent="1">
          <mxGeometry x="61" y="264" width="100" height="40" as="geometry" />
        </mxCell>
        <mxCell id="G1KZ766goiGEvs0yxv07-15" value="用户U04" style="whiteSpace=wrap;html=1;align=center;" vertex="1" parent="1">
          <mxGeometry x="216" y="264" width="100" height="40" as="geometry" />
        </mxCell>
        <mxCell id="G1KZ766goiGEvs0yxv07-18" style="edgeStyle=none;curved=1;rounded=0;orthogonalLoop=1;jettySize=auto;html=1;entryX=0.617;entryY=0.087;entryDx=0;entryDy=0;entryPerimeter=0;fontSize=12;startSize=8;endSize=8;endArrow=none;startFill=0;" edge="1" parent="1" source="G1KZ766goiGEvs0yxv07-5" target="G1KZ766goiGEvs0yxv07-12">
          <mxGeometry relative="1" as="geometry" />
        </mxCell>
        <mxCell id="G1KZ766goiGEvs0yxv07-19" style="edgeStyle=none;curved=1;rounded=0;orthogonalLoop=1;jettySize=auto;html=1;entryX=0.832;entryY=0.004;entryDx=0;entryDy=0;entryPerimeter=0;fontSize=12;startSize=8;endSize=8;endArrow=none;startFill=0;" edge="1" parent="1" source="G1KZ766goiGEvs0yxv07-6" target="G1KZ766goiGEvs0yxv07-12">
          <mxGeometry relative="1" as="geometry" />
        </mxCell>
        <mxCell id="G1KZ766goiGEvs0yxv07-23" style="edgeStyle=none;curved=1;rounded=0;orthogonalLoop=1;jettySize=auto;html=1;entryX=0.564;entryY=0.018;entryDx=0;entryDy=0;entryPerimeter=0;fontSize=12;startSize=8;endSize=8;endArrow=none;startFill=0;" edge="1" parent="1" source="G1KZ766goiGEvs0yxv07-7" target="G1KZ766goiGEvs0yxv07-14">
          <mxGeometry relative="1" as="geometry" />
        </mxCell>
        <mxCell id="G1KZ766goiGEvs0yxv07-25" value="" style="shape=flexArrow;endArrow=classic;startArrow=classic;html=1;rounded=0;fontSize=12;startSize=8;endSize=8;curved=1;entryX=0;entryY=0.5;entryDx=0;entryDy=0;exitX=1;exitY=0.5;exitDx=0;exitDy=0;fillColor=#fff2cc;strokeColor=#d6b656;" edge="1" parent="1" source="G1KZ766goiGEvs0yxv07-2" target="G1KZ766goiGEvs0yxv07-3">
          <mxGeometry width="100" height="100" relative="1" as="geometry">
            <mxPoint x="-40" y="68" as="sourcePoint" />
            <mxPoint x="60" y="-32" as="targetPoint" />
          </mxGeometry>
        </mxCell>
        <mxCell id="G1KZ766goiGEvs0yxv07-26" value="配置互斥" style="edgeLabel;html=1;align=center;verticalAlign=middle;resizable=0;points=[];fontSize=12;" vertex="1" connectable="0" parent="G1KZ766goiGEvs0yxv07-25">
          <mxGeometry x="-0.0579" relative="1" as="geometry">
            <mxPoint as="offset" />
          </mxGeometry>
        </mxCell>
        <mxCell id="G1KZ766goiGEvs0yxv07-29" value="原先已存在配置" style="text;html=1;align=center;verticalAlign=middle;whiteSpace=wrap;rounded=0;dashed=1;strokeColor=#666666;dashPattern=12 12;fillColor=#f5f5f5;fontColor=#333333;" vertex="1" parent="1">
          <mxGeometry x="-284" y="23" width="18" height="285" as="geometry" />
        </mxCell>
        <mxCell id="G1KZ766goiGEvs0yxv07-31" style="edgeStyle=none;curved=1;rounded=0;orthogonalLoop=1;jettySize=auto;html=1;fontSize=12;startSize=8;endSize=8;dashed=1;dashPattern=12 12;fillColor=#fff2cc;strokeColor=#d6b656;" edge="1" parent="1" source="G1KZ766goiGEvs0yxv07-30">
          <mxGeometry relative="1" as="geometry">
            <mxPoint x="9.241387728987092" y="23.620702283135756" as="targetPoint" />
          </mxGeometry>
        </mxCell>
        <mxCell id="G1KZ766goiGEvs0yxv07-30" value="新配置" style="ellipse;shape=cloud;whiteSpace=wrap;html=1;dashed=1;dashPattern=8 8;fillColor=#fff2cc;strokeColor=#d6b656;" vertex="1" parent="1">
          <mxGeometry x="5" y="-57" width="110" height="43" as="geometry" />
        </mxCell>
      </root>
    </mxGraphModel>
  </diagram>
  <diagram id="r5c-nV8iw3ZTS1034cAv" name="职务表模型">
    <mxGraphModel dx="1120" dy="823" grid="0" gridSize="10" guides="1" tooltips="1" connect="1" arrows="1" fold="1" page="0" pageScale="1" pageWidth="827" pageHeight="1169" math="0" shadow="0">
      <root>
        <mxCell id="0" />
        <mxCell id="1" parent="0" />
        <mxCell id="ipFM4Zahh8e25MjfT3L8-1" value="账号" style="shape=table;startSize=30;container=1;collapsible=1;childLayout=tableLayout;fixedRows=1;rowLines=0;fontStyle=1;align=center;resizeLast=1;html=1;" parent="1" vertex="1">
          <mxGeometry x="-162" y="-45" width="180" height="150" as="geometry" />
        </mxCell>
        <mxCell id="ipFM4Zahh8e25MjfT3L8-2" value="" style="shape=tableRow;horizontal=0;startSize=0;swimlaneHead=0;swimlaneBody=0;fillColor=none;collapsible=0;dropTarget=0;points=[[0,0.5],[1,0.5]];portConstraint=eastwest;top=0;left=0;right=0;bottom=1;" parent="ipFM4Zahh8e25MjfT3L8-1" vertex="1">
          <mxGeometry y="30" width="180" height="30" as="geometry" />
        </mxCell>
        <mxCell id="ipFM4Zahh8e25MjfT3L8-3" value="PK" style="shape=partialRectangle;connectable=0;fillColor=none;top=0;left=0;bottom=0;right=0;fontStyle=1;overflow=hidden;whiteSpace=wrap;html=1;" parent="ipFM4Zahh8e25MjfT3L8-2" vertex="1">
          <mxGeometry width="30" height="30" as="geometry">
            <mxRectangle width="30" height="30" as="alternateBounds" />
          </mxGeometry>
        </mxCell>
        <mxCell id="ipFM4Zahh8e25MjfT3L8-4" value="账号ID" style="shape=partialRectangle;connectable=0;fillColor=none;top=0;left=0;bottom=0;right=0;align=left;spacingLeft=6;fontStyle=5;overflow=hidden;whiteSpace=wrap;html=1;" parent="ipFM4Zahh8e25MjfT3L8-2" vertex="1">
          <mxGeometry x="30" width="150" height="30" as="geometry">
            <mxRectangle width="150" height="30" as="alternateBounds" />
          </mxGeometry>
        </mxCell>
        <mxCell id="ipFM4Zahh8e25MjfT3L8-5" value="" style="shape=tableRow;horizontal=0;startSize=0;swimlaneHead=0;swimlaneBody=0;fillColor=none;collapsible=0;dropTarget=0;points=[[0,0.5],[1,0.5]];portConstraint=eastwest;top=0;left=0;right=0;bottom=0;" parent="ipFM4Zahh8e25MjfT3L8-1" vertex="1">
          <mxGeometry y="60" width="180" height="30" as="geometry" />
        </mxCell>
        <mxCell id="ipFM4Zahh8e25MjfT3L8-6" value="" style="shape=partialRectangle;connectable=0;fillColor=none;top=0;left=0;bottom=0;right=0;editable=1;overflow=hidden;whiteSpace=wrap;html=1;" parent="ipFM4Zahh8e25MjfT3L8-5" vertex="1">
          <mxGeometry width="30" height="30" as="geometry">
            <mxRectangle width="30" height="30" as="alternateBounds" />
          </mxGeometry>
        </mxCell>
        <mxCell id="ipFM4Zahh8e25MjfT3L8-7" value="账号名" style="shape=partialRectangle;connectable=0;fillColor=none;top=0;left=0;bottom=0;right=0;align=left;spacingLeft=6;overflow=hidden;whiteSpace=wrap;html=1;" parent="ipFM4Zahh8e25MjfT3L8-5" vertex="1">
          <mxGeometry x="30" width="150" height="30" as="geometry">
            <mxRectangle width="150" height="30" as="alternateBounds" />
          </mxGeometry>
        </mxCell>
        <mxCell id="ipFM4Zahh8e25MjfT3L8-8" value="" style="shape=tableRow;horizontal=0;startSize=0;swimlaneHead=0;swimlaneBody=0;fillColor=none;collapsible=0;dropTarget=0;points=[[0,0.5],[1,0.5]];portConstraint=eastwest;top=0;left=0;right=0;bottom=0;" parent="ipFM4Zahh8e25MjfT3L8-1" vertex="1">
          <mxGeometry y="90" width="180" height="30" as="geometry" />
        </mxCell>
        <mxCell id="ipFM4Zahh8e25MjfT3L8-9" value="" style="shape=partialRectangle;connectable=0;fillColor=none;top=0;left=0;bottom=0;right=0;editable=1;overflow=hidden;whiteSpace=wrap;html=1;" parent="ipFM4Zahh8e25MjfT3L8-8" vertex="1">
          <mxGeometry width="30" height="30" as="geometry">
            <mxRectangle width="30" height="30" as="alternateBounds" />
          </mxGeometry>
        </mxCell>
        <mxCell id="ipFM4Zahh8e25MjfT3L8-10" value="姓名" style="shape=partialRectangle;connectable=0;fillColor=none;top=0;left=0;bottom=0;right=0;align=left;spacingLeft=6;overflow=hidden;whiteSpace=wrap;html=1;" parent="ipFM4Zahh8e25MjfT3L8-8" vertex="1">
          <mxGeometry x="30" width="150" height="30" as="geometry">
            <mxRectangle width="150" height="30" as="alternateBounds" />
          </mxGeometry>
        </mxCell>
        <mxCell id="ipFM4Zahh8e25MjfT3L8-11" value="" style="shape=tableRow;horizontal=0;startSize=0;swimlaneHead=0;swimlaneBody=0;fillColor=none;collapsible=0;dropTarget=0;points=[[0,0.5],[1,0.5]];portConstraint=eastwest;top=0;left=0;right=0;bottom=0;" parent="ipFM4Zahh8e25MjfT3L8-1" vertex="1">
          <mxGeometry y="120" width="180" height="30" as="geometry" />
        </mxCell>
        <mxCell id="ipFM4Zahh8e25MjfT3L8-12" value="" style="shape=partialRectangle;connectable=0;fillColor=none;top=0;left=0;bottom=0;right=0;editable=1;overflow=hidden;whiteSpace=wrap;html=1;" parent="ipFM4Zahh8e25MjfT3L8-11" vertex="1">
          <mxGeometry width="30" height="30" as="geometry">
            <mxRectangle width="30" height="30" as="alternateBounds" />
          </mxGeometry>
        </mxCell>
        <mxCell id="ipFM4Zahh8e25MjfT3L8-13" value="职务ID" style="shape=partialRectangle;connectable=0;fillColor=none;top=0;left=0;bottom=0;right=0;align=left;spacingLeft=6;overflow=hidden;whiteSpace=wrap;html=1;" parent="ipFM4Zahh8e25MjfT3L8-11" vertex="1">
          <mxGeometry x="30" width="150" height="30" as="geometry">
            <mxRectangle width="150" height="30" as="alternateBounds" />
          </mxGeometry>
        </mxCell>
        <mxCell id="ipFM4Zahh8e25MjfT3L8-14" value="职务" style="shape=table;startSize=30;container=1;collapsible=1;childLayout=tableLayout;fixedRows=1;rowLines=0;fontStyle=1;align=center;resizeLast=1;html=1;" parent="1" vertex="1">
          <mxGeometry x="172" y="-45" width="180" height="210" as="geometry" />
        </mxCell>
        <mxCell id="ipFM4Zahh8e25MjfT3L8-15" value="" style="shape=tableRow;horizontal=0;startSize=0;swimlaneHead=0;swimlaneBody=0;fillColor=none;collapsible=0;dropTarget=0;points=[[0,0.5],[1,0.5]];portConstraint=eastwest;top=0;left=0;right=0;bottom=1;" parent="ipFM4Zahh8e25MjfT3L8-14" vertex="1">
          <mxGeometry y="30" width="180" height="30" as="geometry" />
        </mxCell>
        <mxCell id="ipFM4Zahh8e25MjfT3L8-16" value="PK" style="shape=partialRectangle;connectable=0;fillColor=none;top=0;left=0;bottom=0;right=0;fontStyle=1;overflow=hidden;whiteSpace=wrap;html=1;" parent="ipFM4Zahh8e25MjfT3L8-15" vertex="1">
          <mxGeometry width="30" height="30" as="geometry">
            <mxRectangle width="30" height="30" as="alternateBounds" />
          </mxGeometry>
        </mxCell>
        <mxCell id="ipFM4Zahh8e25MjfT3L8-17" value="职务ID" style="shape=partialRectangle;connectable=0;fillColor=none;top=0;left=0;bottom=0;right=0;align=left;spacingLeft=6;fontStyle=5;overflow=hidden;whiteSpace=wrap;html=1;" parent="ipFM4Zahh8e25MjfT3L8-15" vertex="1">
          <mxGeometry x="30" width="150" height="30" as="geometry">
            <mxRectangle width="150" height="30" as="alternateBounds" />
          </mxGeometry>
        </mxCell>
        <mxCell id="ipFM4Zahh8e25MjfT3L8-18" value="" style="shape=tableRow;horizontal=0;startSize=0;swimlaneHead=0;swimlaneBody=0;fillColor=none;collapsible=0;dropTarget=0;points=[[0,0.5],[1,0.5]];portConstraint=eastwest;top=0;left=0;right=0;bottom=0;" parent="ipFM4Zahh8e25MjfT3L8-14" vertex="1">
          <mxGeometry y="60" width="180" height="30" as="geometry" />
        </mxCell>
        <mxCell id="ipFM4Zahh8e25MjfT3L8-19" value="" style="shape=partialRectangle;connectable=0;fillColor=none;top=0;left=0;bottom=0;right=0;editable=1;overflow=hidden;whiteSpace=wrap;html=1;" parent="ipFM4Zahh8e25MjfT3L8-18" vertex="1">
          <mxGeometry width="30" height="30" as="geometry">
            <mxRectangle width="30" height="30" as="alternateBounds" />
          </mxGeometry>
        </mxCell>
        <mxCell id="ipFM4Zahh8e25MjfT3L8-20" value="职务名称" style="shape=partialRectangle;connectable=0;fillColor=none;top=0;left=0;bottom=0;right=0;align=left;spacingLeft=6;overflow=hidden;whiteSpace=wrap;html=1;" parent="ipFM4Zahh8e25MjfT3L8-18" vertex="1">
          <mxGeometry x="30" width="150" height="30" as="geometry">
            <mxRectangle width="150" height="30" as="alternateBounds" />
          </mxGeometry>
        </mxCell>
        <mxCell id="JGVsBsjAa0BmIgP1gEQa-1" value="" style="shape=tableRow;horizontal=0;startSize=0;swimlaneHead=0;swimlaneBody=0;fillColor=none;collapsible=0;dropTarget=0;points=[[0,0.5],[1,0.5]];portConstraint=eastwest;top=0;left=0;right=0;bottom=0;" vertex="1" parent="ipFM4Zahh8e25MjfT3L8-14">
          <mxGeometry y="90" width="180" height="30" as="geometry" />
        </mxCell>
        <mxCell id="JGVsBsjAa0BmIgP1gEQa-2" value="" style="shape=partialRectangle;connectable=0;fillColor=none;top=0;left=0;bottom=0;right=0;editable=1;overflow=hidden;whiteSpace=wrap;html=1;" vertex="1" parent="JGVsBsjAa0BmIgP1gEQa-1">
          <mxGeometry width="30" height="30" as="geometry">
            <mxRectangle width="30" height="30" as="alternateBounds" />
          </mxGeometry>
        </mxCell>
        <mxCell id="JGVsBsjAa0BmIgP1gEQa-3" value="职务简称" style="shape=partialRectangle;connectable=0;fillColor=none;top=0;left=0;bottom=0;right=0;align=left;spacingLeft=6;overflow=hidden;whiteSpace=wrap;html=1;" vertex="1" parent="JGVsBsjAa0BmIgP1gEQa-1">
          <mxGeometry x="30" width="150" height="30" as="geometry">
            <mxRectangle width="150" height="30" as="alternateBounds" />
          </mxGeometry>
        </mxCell>
        <mxCell id="ipFM4Zahh8e25MjfT3L8-21" value="" style="shape=tableRow;horizontal=0;startSize=0;swimlaneHead=0;swimlaneBody=0;fillColor=none;collapsible=0;dropTarget=0;points=[[0,0.5],[1,0.5]];portConstraint=eastwest;top=0;left=0;right=0;bottom=0;" parent="ipFM4Zahh8e25MjfT3L8-14" vertex="1">
          <mxGeometry y="120" width="180" height="30" as="geometry" />
        </mxCell>
        <mxCell id="ipFM4Zahh8e25MjfT3L8-22" value="" style="shape=partialRectangle;connectable=0;fillColor=none;top=0;left=0;bottom=0;right=0;editable=1;overflow=hidden;whiteSpace=wrap;html=1;" parent="ipFM4Zahh8e25MjfT3L8-21" vertex="1">
          <mxGeometry width="30" height="30" as="geometry">
            <mxRectangle width="30" height="30" as="alternateBounds" />
          </mxGeometry>
        </mxCell>
        <mxCell id="ipFM4Zahh8e25MjfT3L8-23" value="层级（总部/省分/地市）" style="shape=partialRectangle;connectable=0;fillColor=none;top=0;left=0;bottom=0;right=0;align=left;spacingLeft=6;overflow=hidden;whiteSpace=wrap;html=1;" parent="ipFM4Zahh8e25MjfT3L8-21" vertex="1">
          <mxGeometry x="30" width="150" height="30" as="geometry">
            <mxRectangle width="150" height="30" as="alternateBounds" />
          </mxGeometry>
        </mxCell>
        <mxCell id="ipFM4Zahh8e25MjfT3L8-24" value="" style="shape=tableRow;horizontal=0;startSize=0;swimlaneHead=0;swimlaneBody=0;fillColor=none;collapsible=0;dropTarget=0;points=[[0,0.5],[1,0.5]];portConstraint=eastwest;top=0;left=0;right=0;bottom=0;" parent="ipFM4Zahh8e25MjfT3L8-14" vertex="1">
          <mxGeometry y="150" width="180" height="30" as="geometry" />
        </mxCell>
        <mxCell id="ipFM4Zahh8e25MjfT3L8-25" value="" style="shape=partialRectangle;connectable=0;fillColor=none;top=0;left=0;bottom=0;right=0;editable=1;overflow=hidden;whiteSpace=wrap;html=1;" parent="ipFM4Zahh8e25MjfT3L8-24" vertex="1">
          <mxGeometry width="30" height="30" as="geometry">
            <mxRectangle width="30" height="30" as="alternateBounds" />
          </mxGeometry>
        </mxCell>
        <mxCell id="ipFM4Zahh8e25MjfT3L8-26" value="排序值（100~999）" style="shape=partialRectangle;connectable=0;fillColor=none;top=0;left=0;bottom=0;right=0;align=left;spacingLeft=6;overflow=hidden;whiteSpace=wrap;html=1;" parent="ipFM4Zahh8e25MjfT3L8-24" vertex="1">
          <mxGeometry x="30" width="150" height="30" as="geometry">
            <mxRectangle width="150" height="30" as="alternateBounds" />
          </mxGeometry>
        </mxCell>
        <mxCell id="ipFM4Zahh8e25MjfT3L8-27" value="" style="shape=tableRow;horizontal=0;startSize=0;swimlaneHead=0;swimlaneBody=0;fillColor=none;collapsible=0;dropTarget=0;points=[[0,0.5],[1,0.5]];portConstraint=eastwest;top=0;left=0;right=0;bottom=0;" parent="ipFM4Zahh8e25MjfT3L8-14" vertex="1">
          <mxGeometry y="180" width="180" height="30" as="geometry" />
        </mxCell>
        <mxCell id="ipFM4Zahh8e25MjfT3L8-28" value="" style="shape=partialRectangle;connectable=0;fillColor=none;top=0;left=0;bottom=0;right=0;editable=1;overflow=hidden;whiteSpace=wrap;html=1;" parent="ipFM4Zahh8e25MjfT3L8-27" vertex="1">
          <mxGeometry width="30" height="30" as="geometry">
            <mxRectangle width="30" height="30" as="alternateBounds" />
          </mxGeometry>
        </mxCell>
        <mxCell id="ipFM4Zahh8e25MjfT3L8-29" value="备注" style="shape=partialRectangle;connectable=0;fillColor=none;top=0;left=0;bottom=0;right=0;align=left;spacingLeft=6;overflow=hidden;whiteSpace=wrap;html=1;" parent="ipFM4Zahh8e25MjfT3L8-27" vertex="1">
          <mxGeometry x="30" width="150" height="30" as="geometry">
            <mxRectangle width="150" height="30" as="alternateBounds" />
          </mxGeometry>
        </mxCell>
        <mxCell id="ipFM4Zahh8e25MjfT3L8-30" style="edgeStyle=orthogonalEdgeStyle;rounded=0;orthogonalLoop=1;jettySize=auto;html=1;entryX=0;entryY=0.5;entryDx=0;entryDy=0;fontSize=12;startSize=8;endSize=8;exitX=1;exitY=0.5;exitDx=0;exitDy=0;startArrow=ERoneToMany;startFill=0;endArrow=ERmandOne;endFill=0;" parent="1" source="ipFM4Zahh8e25MjfT3L8-11" target="ipFM4Zahh8e25MjfT3L8-15" edge="1">
          <mxGeometry relative="1" as="geometry" />
        </mxCell>
      </root>
    </mxGraphModel>
  </diagram>
  <diagram id="tgAgG-Pi4elK45_AKCTg" name="标准角色新增流程">
    <mxGraphModel dx="1444" dy="1014" grid="0" gridSize="10" guides="1" tooltips="1" connect="1" arrows="1" fold="1" page="0" pageScale="1" pageWidth="827" pageHeight="1169" math="0" shadow="0">
      <root>
        <mxCell id="0" />
        <mxCell id="1" parent="0" />
        <mxCell id="INYJPUc9phHzW6EPjb9G-1" value="Pool" style="swimlane;childLayout=stackLayout;resizeParent=1;resizeParentMax=0;startSize=20;horizontal=0;horizontalStack=1;fillColor=#f5f5f5;fontColor=#333333;strokeColor=#666666;" vertex="1" parent="1">
          <mxGeometry x="-89" y="-57" width="758" height="511" as="geometry" />
        </mxCell>
        <mxCell id="INYJPUc9phHzW6EPjb9G-2" value="总部业务管理员" style="swimlane;startSize=20;" vertex="1" parent="INYJPUc9phHzW6EPjb9G-1">
          <mxGeometry x="20" width="220" height="511" as="geometry" />
        </mxCell>
        <mxCell id="INYJPUc9phHzW6EPjb9G-5" value="新建标准角色" style="rounded=0;whiteSpace=wrap;html=1;" vertex="1" parent="INYJPUc9phHzW6EPjb9G-2">
          <mxGeometry x="52" y="58" width="120" height="60" as="geometry" />
        </mxCell>
        <mxCell id="INYJPUc9phHzW6EPjb9G-6" value="配置标准角色与组织关系" style="rounded=0;whiteSpace=wrap;html=1;" vertex="1" parent="INYJPUc9phHzW6EPjb9G-2">
          <mxGeometry x="52" y="167" width="120" height="60" as="geometry" />
        </mxCell>
        <mxCell id="INYJPUc9phHzW6EPjb9G-7" value="" style="edgeStyle=none;curved=1;rounded=0;orthogonalLoop=1;jettySize=auto;html=1;fontSize=12;startSize=8;endSize=8;" edge="1" parent="INYJPUc9phHzW6EPjb9G-2" source="INYJPUc9phHzW6EPjb9G-5" target="INYJPUc9phHzW6EPjb9G-6">
          <mxGeometry relative="1" as="geometry" />
        </mxCell>
        <mxCell id="INYJPUc9phHzW6EPjb9G-3" value="各省地市业务管理员" style="swimlane;startSize=20;" vertex="1" parent="INYJPUc9phHzW6EPjb9G-1">
          <mxGeometry x="240" width="298" height="511" as="geometry" />
        </mxCell>
        <mxCell id="INYJPUc9phHzW6EPjb9G-8" value="&lt;span style=&quot;color: rgb(0, 0, 0);&quot;&gt;配置标准角色与所辖组织关系&lt;/span&gt;" style="rounded=0;whiteSpace=wrap;html=1;" vertex="1" parent="INYJPUc9phHzW6EPjb9G-3">
          <mxGeometry x="76" y="167" width="120" height="60" as="geometry" />
        </mxCell>
        <mxCell id="INYJPUc9phHzW6EPjb9G-16" value="" style="edgeStyle=none;curved=1;rounded=0;orthogonalLoop=1;jettySize=auto;html=1;fontSize=12;startSize=8;endSize=8;" edge="1" parent="INYJPUc9phHzW6EPjb9G-3" source="INYJPUc9phHzW6EPjb9G-12" target="INYJPUc9phHzW6EPjb9G-15">
          <mxGeometry relative="1" as="geometry" />
        </mxCell>
        <mxCell id="INYJPUc9phHzW6EPjb9G-12" value="自动产生角色实例" style="rounded=0;whiteSpace=wrap;html=1;fillColor=#dae8fc;strokeColor=#6c8ebf;" vertex="1" parent="INYJPUc9phHzW6EPjb9G-3">
          <mxGeometry x="-62" y="279" width="120" height="60" as="geometry" />
        </mxCell>
        <mxCell id="INYJPUc9phHzW6EPjb9G-14" style="edgeStyle=none;curved=1;rounded=0;orthogonalLoop=1;jettySize=auto;html=1;entryX=0.602;entryY=0.037;entryDx=0;entryDy=0;entryPerimeter=0;fontSize=12;startSize=8;endSize=8;" edge="1" parent="INYJPUc9phHzW6EPjb9G-3" source="INYJPUc9phHzW6EPjb9G-8" target="INYJPUc9phHzW6EPjb9G-12">
          <mxGeometry relative="1" as="geometry" />
        </mxCell>
        <mxCell id="INYJPUc9phHzW6EPjb9G-15" value="配置角色实例拥有权限" style="rounded=0;whiteSpace=wrap;html=1;" vertex="1" parent="INYJPUc9phHzW6EPjb9G-3">
          <mxGeometry x="58" y="400" width="120" height="60" as="geometry" />
        </mxCell>
        <mxCell id="INYJPUc9phHzW6EPjb9G-4" value="4A管理员" style="swimlane;startSize=20;" vertex="1" parent="INYJPUc9phHzW6EPjb9G-1">
          <mxGeometry x="538" width="220" height="511" as="geometry" />
        </mxCell>
        <mxCell id="INYJPUc9phHzW6EPjb9G-19" value="" style="edgeStyle=none;curved=1;rounded=0;orthogonalLoop=1;jettySize=auto;html=1;fontSize=12;startSize=8;endSize=8;" edge="1" parent="INYJPUc9phHzW6EPjb9G-4" source="INYJPUc9phHzW6EPjb9G-17" target="INYJPUc9phHzW6EPjb9G-18">
          <mxGeometry relative="1" as="geometry" />
        </mxCell>
        <mxCell id="INYJPUc9phHzW6EPjb9G-17" value="选择用户" style="rounded=0;whiteSpace=wrap;html=1;" vertex="1" parent="INYJPUc9phHzW6EPjb9G-4">
          <mxGeometry x="50" y="64" width="120" height="60" as="geometry" />
        </mxCell>
        <mxCell id="INYJPUc9phHzW6EPjb9G-21" value="" style="edgeStyle=none;curved=1;rounded=0;orthogonalLoop=1;jettySize=auto;html=1;fontSize=12;startSize=8;endSize=8;" edge="1" parent="INYJPUc9phHzW6EPjb9G-4" source="INYJPUc9phHzW6EPjb9G-18" target="INYJPUc9phHzW6EPjb9G-20">
          <mxGeometry relative="1" as="geometry" />
        </mxCell>
        <mxCell id="INYJPUc9phHzW6EPjb9G-18" value="根据组织+标准角色查找匹配角色实例" style="whiteSpace=wrap;html=1;rounded=0;" vertex="1" parent="INYJPUc9phHzW6EPjb9G-4">
          <mxGeometry x="50" y="187" width="120" height="60" as="geometry" />
        </mxCell>
        <mxCell id="INYJPUc9phHzW6EPjb9G-25" value="" style="edgeStyle=none;curved=1;rounded=0;orthogonalLoop=1;jettySize=auto;html=1;fontSize=12;startSize=8;endSize=8;" edge="1" parent="INYJPUc9phHzW6EPjb9G-4" source="INYJPUc9phHzW6EPjb9G-20" target="INYJPUc9phHzW6EPjb9G-24">
          <mxGeometry relative="1" as="geometry" />
        </mxCell>
        <mxCell id="INYJPUc9phHzW6EPjb9G-20" value="选择角色实例配置到人员" style="whiteSpace=wrap;html=1;rounded=0;" vertex="1" parent="INYJPUc9phHzW6EPjb9G-4">
          <mxGeometry x="50" y="296" width="120" height="60" as="geometry" />
        </mxCell>
        <mxCell id="INYJPUc9phHzW6EPjb9G-24" value="自动设置用户权限" style="whiteSpace=wrap;html=1;rounded=0;fillColor=#dae8fc;strokeColor=#6c8ebf;" vertex="1" parent="INYJPUc9phHzW6EPjb9G-4">
          <mxGeometry x="50" y="410" width="120" height="60" as="geometry" />
        </mxCell>
        <mxCell id="INYJPUc9phHzW6EPjb9G-9" value="" style="edgeStyle=none;curved=1;rounded=0;orthogonalLoop=1;jettySize=auto;html=1;fontSize=12;startSize=8;endSize=8;" edge="1" parent="INYJPUc9phHzW6EPjb9G-1" source="INYJPUc9phHzW6EPjb9G-6" target="INYJPUc9phHzW6EPjb9G-8">
          <mxGeometry relative="1" as="geometry" />
        </mxCell>
        <mxCell id="INYJPUc9phHzW6EPjb9G-13" value="" style="edgeStyle=none;curved=1;rounded=0;orthogonalLoop=1;jettySize=auto;html=1;fontSize=12;startSize=8;endSize=8;" edge="1" parent="INYJPUc9phHzW6EPjb9G-1" source="INYJPUc9phHzW6EPjb9G-6" target="INYJPUc9phHzW6EPjb9G-12">
          <mxGeometry relative="1" as="geometry" />
        </mxCell>
        <mxCell id="INYJPUc9phHzW6EPjb9G-22" style="edgeStyle=none;curved=1;rounded=0;orthogonalLoop=1;jettySize=auto;html=1;entryX=0;entryY=0.5;entryDx=0;entryDy=0;fontSize=12;startSize=8;endSize=8;dashed=1;" edge="1" parent="INYJPUc9phHzW6EPjb9G-1" source="INYJPUc9phHzW6EPjb9G-12" target="INYJPUc9phHzW6EPjb9G-18">
          <mxGeometry relative="1" as="geometry" />
        </mxCell>
        <mxCell id="INYJPUc9phHzW6EPjb9G-23" style="edgeStyle=none;curved=1;rounded=0;orthogonalLoop=1;jettySize=auto;html=1;fontSize=12;startSize=8;endSize=8;entryX=0;entryY=0.5;entryDx=0;entryDy=0;dashed=1;" edge="1" parent="INYJPUc9phHzW6EPjb9G-1" source="INYJPUc9phHzW6EPjb9G-15" target="INYJPUc9phHzW6EPjb9G-24">
          <mxGeometry relative="1" as="geometry">
            <mxPoint x="506.20001220703125" y="416.4000244140625" as="targetPoint" />
          </mxGeometry>
        </mxCell>
      </root>
    </mxGraphModel>
  </diagram>
  <diagram name="业务系统单点登录流程" id="Pfesm5KMQtEsusyj0hbx">
    <mxGraphModel dx="1444" dy="614" grid="0" gridSize="10" guides="1" tooltips="1" connect="1" arrows="1" fold="1" page="0" pageScale="1" pageWidth="827" pageHeight="1169" math="0" shadow="0">
      <root>
        <mxCell id="nrwFAQoPnKu-WVGMQmIt-0" />
        <mxCell id="nrwFAQoPnKu-WVGMQmIt-1" parent="nrwFAQoPnKu-WVGMQmIt-0" />
        <mxCell id="qxEov33yZkXztcAwy9Pq-0" value="登录/统一入口登录" style="swimlane;childLayout=stackLayout;resizeParent=1;resizeParentMax=0;startSize=20;horizontal=0;horizontalStack=1;" vertex="1" parent="nrwFAQoPnKu-WVGMQmIt-1">
          <mxGeometry x="-142" y="399" width="979" height="571" as="geometry" />
        </mxCell>
        <mxCell id="qxEov33yZkXztcAwy9Pq-32" value="用户" style="swimlane;startSize=20;" vertex="1" parent="qxEov33yZkXztcAwy9Pq-0">
          <mxGeometry x="20" width="151" height="571" as="geometry" />
        </mxCell>
        <mxCell id="qxEov33yZkXztcAwy9Pq-1" value="4A门户" style="swimlane;startSize=20;" vertex="1" parent="qxEov33yZkXztcAwy9Pq-0">
          <mxGeometry x="171" width="151" height="571" as="geometry" />
        </mxCell>
        <mxCell id="qxEov33yZkXztcAwy9Pq-2" value="" style="shape=actor;whiteSpace=wrap;html=1;" vertex="1" parent="qxEov33yZkXztcAwy9Pq-1">
          <mxGeometry x="-118" y="60" width="40" height="60" as="geometry" />
        </mxCell>
        <mxCell id="qxEov33yZkXztcAwy9Pq-3" value="4A查询服务" style="swimlane;startSize=20;" vertex="1" parent="qxEov33yZkXztcAwy9Pq-0">
          <mxGeometry x="322" width="215" height="571" as="geometry" />
        </mxCell>
        <mxCell id="qxEov33yZkXztcAwy9Pq-4" value="运营管理/UAC" style="rounded=0;whiteSpace=wrap;html=1;" vertex="1" parent="qxEov33yZkXztcAwy9Pq-3">
          <mxGeometry x="-137.5" y="60" width="120" height="60" as="geometry" />
        </mxCell>
        <mxCell id="qxEov33yZkXztcAwy9Pq-6" value="登录用户信息查询接口" style="whiteSpace=wrap;html=1;rounded=0;" vertex="1" parent="qxEov33yZkXztcAwy9Pq-3">
          <mxGeometry x="47.5" y="264" width="120" height="60" as="geometry" />
        </mxCell>
        <mxCell id="qxEov33yZkXztcAwy9Pq-7" style="edgeStyle=none;curved=1;rounded=0;orthogonalLoop=1;jettySize=auto;html=1;fontSize=12;startSize=8;endSize=8;" edge="1" parent="qxEov33yZkXztcAwy9Pq-0" source="qxEov33yZkXztcAwy9Pq-2" target="qxEov33yZkXztcAwy9Pq-4">
          <mxGeometry relative="1" as="geometry">
            <mxPoint x="110.47064568014707" y="90" as="targetPoint" />
          </mxGeometry>
        </mxCell>
        <mxCell id="qxEov33yZkXztcAwy9Pq-8" value="登录" style="edgeLabel;html=1;align=center;verticalAlign=middle;resizable=0;points=[];fontSize=12;" vertex="1" connectable="0" parent="qxEov33yZkXztcAwy9Pq-7">
          <mxGeometry x="-0.2133" relative="1" as="geometry">
            <mxPoint as="offset" />
          </mxGeometry>
        </mxCell>
        <mxCell id="qxEov33yZkXztcAwy9Pq-9" style="edgeStyle=none;curved=1;rounded=0;orthogonalLoop=1;jettySize=auto;html=1;fontSize=12;startSize=8;endSize=8;" edge="1" parent="qxEov33yZkXztcAwy9Pq-0" source="qxEov33yZkXztcAwy9Pq-4" target="qxEov33yZkXztcAwy9Pq-20">
          <mxGeometry relative="1" as="geometry" />
        </mxCell>
        <mxCell id="qxEov33yZkXztcAwy9Pq-10" value="携带令牌单点" style="edgeLabel;html=1;align=center;verticalAlign=middle;resizable=0;points=[];fontSize=12;" vertex="1" connectable="0" parent="qxEov33yZkXztcAwy9Pq-9">
          <mxGeometry x="-0.4455" y="-1" relative="1" as="geometry">
            <mxPoint x="16" as="offset" />
          </mxGeometry>
        </mxCell>
        <mxCell id="qxEov33yZkXztcAwy9Pq-11" style="edgeStyle=none;curved=1;rounded=0;orthogonalLoop=1;jettySize=auto;html=1;entryX=1;entryY=0.25;entryDx=0;entryDy=0;fontSize=12;startSize=8;endSize=8;exitX=0;exitY=0.25;exitDx=0;exitDy=0;" edge="1" parent="qxEov33yZkXztcAwy9Pq-0" source="qxEov33yZkXztcAwy9Pq-21" target="qxEov33yZkXztcAwy9Pq-5">
          <mxGeometry relative="1" as="geometry" />
        </mxCell>
        <mxCell id="qxEov33yZkXztcAwy9Pq-12" value="令牌校验" style="edgeLabel;html=1;align=center;verticalAlign=middle;resizable=0;points=[];fontSize=12;" vertex="1" connectable="0" parent="qxEov33yZkXztcAwy9Pq-11">
          <mxGeometry x="-0.0144" y="2" relative="1" as="geometry">
            <mxPoint as="offset" />
          </mxGeometry>
        </mxCell>
        <mxCell id="qxEov33yZkXztcAwy9Pq-13" value="" style="edgeStyle=none;curved=1;rounded=0;orthogonalLoop=1;jettySize=auto;html=1;fontSize=12;startSize=8;endSize=8;entryX=0;entryY=0.75;entryDx=0;entryDy=0;exitX=1;exitY=0.75;exitDx=0;exitDy=0;" edge="1" parent="qxEov33yZkXztcAwy9Pq-0" source="qxEov33yZkXztcAwy9Pq-5" target="qxEov33yZkXztcAwy9Pq-21">
          <mxGeometry relative="1" as="geometry" />
        </mxCell>
        <mxCell id="qxEov33yZkXztcAwy9Pq-14" value="令牌成功" style="edgeLabel;html=1;align=center;verticalAlign=middle;resizable=0;points=[];fontSize=12;" vertex="1" connectable="0" parent="qxEov33yZkXztcAwy9Pq-13">
          <mxGeometry x="-0.3705" y="2" relative="1" as="geometry">
            <mxPoint as="offset" />
          </mxGeometry>
        </mxCell>
        <mxCell id="qxEov33yZkXztcAwy9Pq-15" style="edgeStyle=orthogonalEdgeStyle;rounded=0;orthogonalLoop=1;jettySize=auto;html=1;entryX=0.5;entryY=0;entryDx=0;entryDy=0;fontSize=12;startSize=8;endSize=8;exitX=0.5;exitY=1;exitDx=0;exitDy=0;" edge="1" parent="qxEov33yZkXztcAwy9Pq-0" source="qxEov33yZkXztcAwy9Pq-21" target="qxEov33yZkXztcAwy9Pq-6">
          <mxGeometry relative="1" as="geometry" />
        </mxCell>
        <mxCell id="qxEov33yZkXztcAwy9Pq-16" value="根据用户获取" style="edgeLabel;html=1;align=center;verticalAlign=middle;resizable=0;points=[];fontSize=12;" vertex="1" connectable="0" parent="qxEov33yZkXztcAwy9Pq-15">
          <mxGeometry x="0.1569" y="-1" relative="1" as="geometry">
            <mxPoint as="offset" />
          </mxGeometry>
        </mxCell>
        <mxCell id="qxEov33yZkXztcAwy9Pq-17" value="" style="edgeStyle=none;curved=1;rounded=0;orthogonalLoop=1;jettySize=auto;html=1;fontSize=12;startSize=8;endSize=8;" edge="1" parent="qxEov33yZkXztcAwy9Pq-0" source="qxEov33yZkXztcAwy9Pq-6" target="qxEov33yZkXztcAwy9Pq-23">
          <mxGeometry relative="1" as="geometry" />
        </mxCell>
        <mxCell id="qxEov33yZkXztcAwy9Pq-34" value="用户的详细信息及权限信息" style="edgeLabel;html=1;align=center;verticalAlign=middle;resizable=0;points=[];fontSize=12;" vertex="1" connectable="0" parent="qxEov33yZkXztcAwy9Pq-17">
          <mxGeometry x="-0.1741" y="-4" relative="1" as="geometry">
            <mxPoint x="1" as="offset" />
          </mxGeometry>
        </mxCell>
        <mxCell id="qxEov33yZkXztcAwy9Pq-18" value="4A认证服务" style="swimlane;startSize=20;" vertex="1" parent="qxEov33yZkXztcAwy9Pq-0">
          <mxGeometry x="537" width="215" height="571" as="geometry" />
        </mxCell>
        <mxCell id="qxEov33yZkXztcAwy9Pq-5" value="令牌校验接口" style="rounded=0;whiteSpace=wrap;html=1;" vertex="1" parent="qxEov33yZkXztcAwy9Pq-18">
          <mxGeometry x="29" y="164" width="120" height="60" as="geometry" />
        </mxCell>
        <mxCell id="qxEov33yZkXztcAwy9Pq-25" value="业务系统" style="swimlane;startSize=20;" vertex="1" parent="qxEov33yZkXztcAwy9Pq-0">
          <mxGeometry x="752" width="227" height="571" as="geometry" />
        </mxCell>
        <mxCell id="qxEov33yZkXztcAwy9Pq-19" value="" style="edgeStyle=none;curved=1;rounded=0;orthogonalLoop=1;jettySize=auto;html=1;fontSize=12;startSize=8;endSize=8;" edge="1" parent="qxEov33yZkXztcAwy9Pq-25" source="qxEov33yZkXztcAwy9Pq-20" target="qxEov33yZkXztcAwy9Pq-21">
          <mxGeometry relative="1" as="geometry" />
        </mxCell>
        <mxCell id="qxEov33yZkXztcAwy9Pq-20" value="单点登录接口" style="rounded=0;whiteSpace=wrap;html=1;" vertex="1" parent="qxEov33yZkXztcAwy9Pq-25">
          <mxGeometry x="53.5" y="60" width="120" height="60" as="geometry" />
        </mxCell>
        <mxCell id="qxEov33yZkXztcAwy9Pq-21" value="本地校验后，到4A校验令牌" style="rounded=0;whiteSpace=wrap;html=1;" vertex="1" parent="qxEov33yZkXztcAwy9Pq-25">
          <mxGeometry x="53.5" y="162" width="120" height="60" as="geometry" />
        </mxCell>
        <mxCell id="qxEov33yZkXztcAwy9Pq-22" value="" style="edgeStyle=none;curved=1;rounded=0;orthogonalLoop=1;jettySize=auto;html=1;fontSize=12;startSize=8;endSize=8;" edge="1" parent="qxEov33yZkXztcAwy9Pq-25" source="qxEov33yZkXztcAwy9Pq-23" target="qxEov33yZkXztcAwy9Pq-24">
          <mxGeometry relative="1" as="geometry" />
        </mxCell>
        <mxCell id="qxEov33yZkXztcAwy9Pq-23" value="获取用户及权限信息" style="whiteSpace=wrap;html=1;rounded=0;" vertex="1" parent="qxEov33yZkXztcAwy9Pq-25">
          <mxGeometry x="53.5" y="264" width="120" height="60" as="geometry" />
        </mxCell>
        <mxCell id="qxEov33yZkXztcAwy9Pq-36" style="edgeStyle=none;curved=1;rounded=0;orthogonalLoop=1;jettySize=auto;html=1;fontSize=12;startSize=8;endSize=8;" edge="1" parent="qxEov33yZkXztcAwy9Pq-25" source="qxEov33yZkXztcAwy9Pq-24" target="qxEov33yZkXztcAwy9Pq-35">
          <mxGeometry relative="1" as="geometry" />
        </mxCell>
        <mxCell id="qxEov33yZkXztcAwy9Pq-24" value="展示用户首页，根据具体权限展示数据" style="whiteSpace=wrap;html=1;rounded=0;" vertex="1" parent="qxEov33yZkXztcAwy9Pq-25">
          <mxGeometry x="10" y="377" width="120" height="60" as="geometry" />
        </mxCell>
        <mxCell id="qxEov33yZkXztcAwy9Pq-35" value="权限临时缓存到本地" style="shape=cylinder3;whiteSpace=wrap;html=1;boundedLbl=1;backgroundOutline=1;size=15;" vertex="1" parent="qxEov33yZkXztcAwy9Pq-25">
          <mxGeometry x="162" y="460" width="60" height="80" as="geometry" />
        </mxCell>
      </root>
    </mxGraphModel>
  </diagram>
</mxfile>
